<svg id="Laag_1" data-name="Laag 1" xmlns="http://www.w3.org/2000/svg" viewBox="0 0 224.86 175.67"><defs><style>.cls-1{fill:#007f2d;}.cls-2{fill:#bdbcbc;}.cls-3{fill:#e30613;}</style></defs><title>logo</title><path class="cls-1" d="M220.63,77.57a5.23,5.23,0,1,0,5.23,5.23A5.23,5.23,0,0,0,220.63,77.57Zm0,9.41a4.18,4.18,0,1,1,4.16-4.18A4.18,4.18,0,0,1,220.63,87Z" transform="translate(-1 -1.06)"></path><path class="cls-1" d="M222,82.79a1.49,1.49,0,0,0,.84-1.44,1.61,1.61,0,0,0-1.72-1.57h-2.7v5.64h1.29v-2.2h.48c.65,0,1,.17,1.21.78a11,11,0,0,0,.46,1.42h1.4A4.5,4.5,0,0,1,222.8,84,1.61,1.61,0,0,0,222,82.79Zm-1.23-.68h-1v-1.3h.91c.4,0,.87.16.87.62A.69.69,0,0,1,220.81,82.11Z" transform="translate(-1 -1.06)"></path><path class="cls-1" d="M58.65,108.61a14.29,14.29,0,0,1-5.3,3.56c-1.79.58-6.89,1-8.39-3.19-.32-.91-.06-1.19.76-1.44,1.23-.37,4.4-1.3,7.74-2.55a40,40,0,0,0,6.59-3.09A2.86,2.86,0,0,0,61.13,98c-2.13-4.79-6.95-9.8-15-8.28a13.66,13.66,0,0,0-10.93,13.5c0,8.12,4.89,12.87,11.12,14.34,5.75,1.37,12.52-1.42,15.42-6.11C62.93,109.64,59.7,107.5,58.65,108.61Zm-14.42-6.39c-.62-1.72-.13-7,2.78-8s4.93.53,5.84,3.6a3.58,3.58,0,0,1-.11,2.8A5.26,5.26,0,0,1,50.37,102l-2.29.76C45.83,103.5,44.76,103.65,44.23,102.22Z" transform="translate(-1 -1.06)"></path><path class="cls-1" d="M133.21,108.61a14.3,14.3,0,0,1-5.3,3.56c-1.79.58-6.89,1-8.38-3.19-.32-.91-.06-1.19.76-1.44,1.23-.37,4.4-1.3,7.74-2.55a40,40,0,0,0,6.59-3.09A2.86,2.86,0,0,0,135.69,98c-2.13-4.79-6.95-9.8-15-8.28a13.66,13.66,0,0,0-10.93,13.5c0,8.12,4.89,12.87,11.12,14.34,5.75,1.37,12.52-1.42,15.42-6.11C137.49,109.64,134.26,107.5,133.21,108.61Zm-14.42-6.39a9,9,0,0,1,.36-5.22,4.34,4.34,0,0,1,2.42-2.76,3.9,3.9,0,0,1,3.52.13,5.66,5.66,0,0,1,2.32,3.47,3.58,3.58,0,0,1-.11,2.8,5.2,5.2,0,0,1-2.38,1.34c-1,.35-1.87.64-2.29.77C120.38,103.45,119.32,103.65,118.8,102.22Z" transform="translate(-1 -1.06)"></path><path class="cls-1" d="M190.05,108.61a14.29,14.29,0,0,1-5.3,3.56c-1.79.58-6.89,1-8.38-3.19-.32-.91-.06-1.19.76-1.44,1.23-.37,4.4-1.3,7.74-2.55a40,40,0,0,0,6.59-3.09A2.86,2.86,0,0,0,192.53,98c-2.13-4.79-6.95-9.8-15-8.28a13.66,13.66,0,0,0-10.92,13.5c0,8.12,4.89,12.87,11.12,14.34,5.75,1.37,12.52-1.42,15.42-6.11C194.33,109.64,191.1,107.5,190.05,108.61Zm-14.42-6.39A9,9,0,0,1,176,97a4.34,4.34,0,0,1,2.42-2.76,3.9,3.9,0,0,1,3.52.13,5.66,5.66,0,0,1,2.32,3.47,3.58,3.58,0,0,1-.11,2.8,5.2,5.2,0,0,1-2.38,1.34c-1,.35-1.87.64-2.29.77C177.22,103.45,176.16,103.65,175.63,102.22Z" transform="translate(-1 -1.06)"></path><path class="cls-1" d="M22.38,110.15c0,1.09-.34,2.28-1.18,2.66l-1.82.82a.7.7,0,0,0-.42.75,1.64,1.64,0,0,0,0,.27l.21,2.06c.1.56.48.65,1.22.65H33.58c.74,0,1.13-.09,1.22-.65l.21-2.06a1.66,1.66,0,0,0,0-.27.7.7,0,0,0-.42-.75l-1.82-.82c-.84-.37-1.18-1.57-1.18-2.66V87.37c0-1.09.34-2.28,1.18-2.66l1.82-.82a.7.7,0,0,0,.42-.75,1.65,1.65,0,0,0,0-.27l-.21-1.55c-.09-.56-.48-.65-1.22-.65H21c-.74,0-1.13.09-1.22.65l-.21,1.55a1.64,1.64,0,0,0,0,.27.7.7,0,0,0,.42.75l1.48.82c.85.48.9,1.57.9,2.66v6.35a.8.8,0,0,1-.8.8H14.46a.8.8,0,0,1-.8-.8V87.37c0-1.09.06-2.17.9-2.66L16,83.89a.7.7,0,0,0,.42-.75,1.65,1.65,0,0,0,0-.27l-.21-1.55c-.1-.56-.48-.65-1.22-.65H2.46c-.74,0-1.13.09-1.22.65L1,82.87a1.65,1.65,0,0,0,0,.27.7.7,0,0,0,.42.75l1.81.82c.84.37,1.18,1.57,1.18,2.66v22.78c0,1.09-.34,2.28-1.18,2.66l-1.81.82a.7.7,0,0,0-.42.75,1.66,1.66,0,0,0,0,.27l.21,2.06c.1.56.48.65,1.22.65H15.61c.74,0,1.13-.09,1.22-.65l.21-2.06a1.65,1.65,0,0,0,0-.27.7.7,0,0,0-.42-.75l-1.81-.82c-.84-.37-1.18-1.57-1.18-2.66v-9.26a.8.8,0,0,1,.8-.8h7.12a.8.8,0,0,1,.8.8Z" transform="translate(-1 -1.06)"></path><ellipse class="cls-1" cx="68.47" cy="83.45" rx="4.75" ry="4.58"></ellipse><path class="cls-1" d="M64.27,117.36c-.71,0-1.08-.09-1.17-.63l-.21-2.05a1.43,1.43,0,0,1,0-.26.7.7,0,0,1,.39-.72l1.41-.79a2.8,2.8,0,0,0,1.13-2.55v-13c0-1.09-.19-2.48-1.14-3l-.9-.52a.7.7,0,0,1-.42-.75,1.64,1.64,0,0,1,0-.27l.21-1.55c.1-.56.48-.65,1.22-.65H73.7a.8.8,0,0,1,.8.8v18.9a2.8,2.8,0,0,0,1.13,2.55l1.41.79a.7.7,0,0,1,.39.72,1.44,1.44,0,0,1,0,.26l-.2,2.05c-.09.54-.46.63-1.17.63Z" transform="translate(-1 -1.06)"></path><path class="cls-1" d="M91.16,92l1.4-.68c1.78-.84,5.26-2.33,8.14-1.41,2.49.8,4.65,2.61,4.65,7.36v14.39c0,.61,0,.87.31,1s1-.42,1.69-.75,1,.06,1.39.49a1.4,1.4,0,0,1,.42,1.62,6.63,6.63,0,0,1-6.23,3.51c-2.63,0-6-1.51-6-5.46V98.29a2.44,2.44,0,0,0-2.73-2.7c-1.8.22-3.11,1.73-3.11,4.42v10.36a2.8,2.8,0,0,0,1.13,2.55l1.41.79a.7.7,0,0,1,.39.72,1.43,1.43,0,0,1,0,.26l-.21,2.05c-.09.54-.46.63-1.17.63H80.87c-.71,0-1.08-.09-1.17-.63l-.2-2.05a1.43,1.43,0,0,1,0-.26.7.7,0,0,1,.39-.72l1.41-.79a2.8,2.8,0,0,0,1.13-2.55v-13c0-1.09-.19-2.48-1.14-3l-.9-.52a.7.7,0,0,1-.42-.75,1.59,1.59,0,0,1,0-.27l.21-1.55c.1-.56.48-.65,1.22-.65h8.37a1.11,1.11,0,0,1,1.1.8Z" transform="translate(-1 -1.06)"></path><path class="cls-1" d="M206,92l1.4-.68c1.78-.84,5.26-2.33,8.14-1.41,2.49.8,4.65,2.61,4.65,7.36v14.39c0,.61,0,.87.31,1s1-.42,1.69-.75,1,.06,1.39.49a1.4,1.4,0,0,1,.42,1.62,6.63,6.63,0,0,1-6.23,3.51c-2.63,0-6-1.51-6-5.46V98.29a2.44,2.44,0,0,0-2.73-2.7c-1.8.22-3.11,1.73-3.11,4.42v10.36a2.8,2.8,0,0,0,1.13,2.55l1.41.79a.7.7,0,0,1,.39.72,1.45,1.45,0,0,1,0,.26l-.21,2.05c-.09.54-.46.63-1.17.63H195.72c-.71,0-1.08-.09-1.17-.63l-.2-2.05a1.42,1.42,0,0,1,0-.26.7.7,0,0,1,.39-.72l1.41-.79a2.8,2.8,0,0,0,1.13-2.55v-13c0-1.09-.19-2.48-1.14-3l-.9-.52a.7.7,0,0,1-.42-.75,1.65,1.65,0,0,1,0-.27l.21-1.55c.1-.56.48-.65,1.22-.65h8.37a1.11,1.11,0,0,1,1.1.8Z" transform="translate(-1 -1.06)"></path><path class="cls-1" d="M163.39,110.72a5.8,5.8,0,0,0,2.17,2.19l1.41.79a.7.7,0,0,1,.39.72,1.46,1.46,0,0,1,0,.26l-.2,2.05c-.09.54-.46.63-1.17.63h-7.1c-1.21,0-1.31-.35-1.85-1.34l-6-10.85-2.24,2.15v3.05a2.88,2.88,0,0,0,1.3,2.55l1.41.79a.7.7,0,0,1,.39.72,1.39,1.39,0,0,1,0,.26l-.2,2.05c-.09.54-.46.63-1.17.63H138.77c-.71,0-1.08-.09-1.17-.63l-.2-2.05a1.37,1.37,0,0,1,0-.26.7.7,0,0,1,.39-.72l1.41-.79a2.8,2.8,0,0,0,1.13-2.55V87.08a2.78,2.78,0,0,0-1.13-2.55l-1.41-.79a.71.71,0,0,1-.39-.72,1.36,1.36,0,0,1,0-.26l.2-1.47c.09-.54.46-.63,1.17-.63h8.53a1.52,1.52,0,0,1,1.52,1.52V99.87l3.79-3.42c.54-.47,1.43-1.24,1.77-1.59s.42-.86-.08-1.06L153,93.19a.64.64,0,0,1-.38-.68,1.49,1.49,0,0,1,0-.25l.19-1.88c.09-.51.44-.59,1.11-.59h10.21c.68,0,1,.08,1.11.59l.19,1.88a2.3,2.3,0,0,1,0,.25c0,.41-.46.6-.75.74a7.26,7.26,0,0,0-1.39.59,13.88,13.88,0,0,0-2.25,1.74l-3.94,3.78Z" transform="translate(-1 -1.06)"></path><path class="cls-2" d="M154.42,60.78v-.17h-1.17a1.55,1.55,0,0,0,1.65,1.75,1.71,1.71,0,0,0,1.85-1.86,1.37,1.37,0,0,0-1-1.48v0a1.44,1.44,0,0,0,.77-1.47A1.49,1.49,0,0,0,155,55.9c-1.14,0-1.5.84-1.47,1.85h1.08v-.13c0-.27.06-.65.42-.65s.43.36.43.64c0,.7-.28.83-1,.83v1.08c.71,0,.94.17.94.87,0,.37,0,.88-.54.88a.47.47,0,0,1-.47-.49" transform="translate(-1 -1.06)"></path><polygon class="cls-2" points="151.43 54.93 148.05 54.93 148.05 56 149.73 56 147.78 61.19 149.07 61.19 151.43 54.93"></polygon><path class="cls-2" d="M146.43,58.88v0a1.31,1.31,0,0,0,.86-1.32,1.57,1.57,0,1,0-3.13,0,1.33,1.33,0,0,0,.85,1.32v0a1.56,1.56,0,0,0-1.09,1.66,1.8,1.8,0,1,0,3.6,0,1.55,1.55,0,0,0-1.08-1.66m-.73-2c.34,0,.38.43.38.67s0,.7-.38.7-.35-.48-.35-.71.05-.66.35-.66m0,4.41c-.43,0-.52-.57-.52-.88s.09-.91.51-.91.55.6.55.91-.12.88-.54.88" transform="translate(-1 -1.06)"></path><polygon class="cls-2" points="141.22 54.93 139.42 54.93 139.42 56 140.02 56 140.02 61.19 141.22 61.19 141.22 54.93"></polygon><polygon class="cls-2" points="71.16 54.93 68.42 54.93 68.42 61.19 71.17 61.19 71.17 60.03 69.77 60.03 69.77 58.61 70.99 58.61 70.99 57.45 69.77 57.45 69.77 56.09 71.16 56.09 71.16 54.93"></polygon><path class="cls-2" d="M84.28,60.78a.79.79,0,1,0,.77.78.77.77,0,0,0-.77-.78" transform="translate(-1 -1.06)"></path><polygon class="cls-2" points="81.56 54.93 78.07 54.93 78.07 56.09 79.13 56.09 79.13 61.19 80.5 61.19 80.5 56.09 81.56 56.09 81.56 54.93"></polygon><path class="cls-2" d="M77.17,57.4V56.19A2.65,2.65,0,0,0,76,55.9a1.72,1.72,0,0,0-1.79,1.84,2,2,0,0,0,1.26,1.85c.38.26.81.44.81.91a.71.71,0,0,1-.79.69,1.78,1.78,0,0,1-1-.34V62a2.32,2.32,0,0,0,1.17.32,1.85,1.85,0,0,0,2-2c0-1.7-2.07-1.76-2.07-2.78a.61.61,0,0,1,.68-.62,1.65,1.65,0,0,1,1,.41" transform="translate(-1 -1.06)"></path><path class="cls-2" d="M135.8,67.13a1.43,1.43,0,0,1-.4,1.39c-.23.2-.45.35-.45.35s-.22.17-.48.32a1.43,1.43,0,0,1-1.44,0s-.8-.5-2.09-1.37c-4.11-2.78-13.29-9-18.31-12.57-5,3.57-14.2,9.79-18.31,12.57-1.3.88-2.1,1.37-2.1,1.37a1.43,1.43,0,0,1-1.44,0c-.26-.16-.48-.32-.48-.32s-.22-.15-.45-.35a1.43,1.43,0,0,1-.4-1.39l.12-.46a1.27,1.27,0,0,0,.28.38c.23.2.45.35.45.35s.22.17.48.32a1.43,1.43,0,0,0,1.44,0s.8-.5,2.1-1.37c4.11-2.78,13.29-9,18.31-12.57,5,3.57,14.19,9.79,18.31,12.57,1.3.88,2.09,1.37,2.09,1.37a1.43,1.43,0,0,0,1.44,0c.26-.16.48-.32.48-.32s.22-.15.45-.35a1.28,1.28,0,0,0,.28-.38ZM96.41,42c-4.94-3.67-13.7-10.47-17.61-13.52-1.23-1-2-1.57-2-1.57a1.31,1.31,0,0,1-.34-.41c0,.06-.09.28-.15.53a1.43,1.43,0,0,0,.49,1.36s.72.61,2,1.57C82.62,32.87,91,39.42,96,43.15Zm52.33-15.51a1.32,1.32,0,0,1-.34.41s-.72.61-2,1.57c-3.91,3.05-12.67,9.86-17.61,13.52l.37,1.2c5-3.72,13.42-10.27,17.24-13.25,1.23-1,2-1.57,2-1.57A1.43,1.43,0,0,0,148.9,27C148.84,26.73,148.77,26.51,148.75,26.44Z" transform="translate(-1 -1.06)"></path><path class="cls-3" d="M99.45,41,91.54,65.29a.1.1,0,0,0,0,.11l.12.1.13.08a.1.1,0,0,0,.12,0l20.69-15,20.69,15a.1.1,0,0,0,.12,0l.13-.09.12-.1a.1.1,0,0,0,0-.11L125.81,41l20.7-15a.1.1,0,0,0,0-.11s0-.08,0-.15-.05-.14-.05-.14a.1.1,0,0,0-.1-.07H120.78L112.88,1.14a.1.1,0,0,0-.1-.07h-.31a.1.1,0,0,0-.1.07l-7.89,24.33H78.91a.1.1,0,0,0-.1.07s0,.07-.05.15,0,.15,0,.15a.1.1,0,0,0,0,.11Z" transform="translate(-1 -1.06)"></path><path class="cls-1" d="M23.19,156.9H7.3a.82.82,0,1,1,0-1.64H23.19a.82.82,0,1,1,0,1.64Zm178.88,0H218a.82.82,0,0,0,0-1.64H202.07a.82.82,0,1,0,0,1.64ZM35.85,170.33v4.57a11.8,11.8,0,0,0,6.4,1.83c5.27,0,9.31-4.2,9.31-10.44,0-5.06-2.53-7.37-6.62-10.39-3.71-2.75-6-4.52-6-8.83,0-3.87,2.31-6.4,5.6-6.4A7,7,0,0,1,50.27,144V139.5a9.82,9.82,0,0,0-5.92-2.1c-5.06,0-8.93,4.2-8.93,10,0,4,1.83,6.83,5.49,9.79,1.94,1.56,4.14,2.8,5.7,4.84a7,7,0,0,1,1.45,4.47c0,4.14-2.58,6.94-6.14,6.94A8.16,8.16,0,0,1,35.85,170.33ZM75,141v35.25h3.5V141h6v-3.12H69V141Zm27.39,16.09c0,13.24,2.91,19.64,9.53,19.64s9.53-6.4,9.53-19.64-2.91-19.7-9.53-19.7S102.35,143.85,102.35,157.09Zm9.53-16.47c4.25,0,5.92,5.38,5.92,16.41s-1.67,16.47-5.92,16.47S106,168.07,106,157,107.68,140.63,111.88,140.63Zm29.22-2.75v38.37h3.5v-19.8l8.45,19.8h3.66l-8.34-18.78c4.84-.38,7.1-3.44,7.1-9.53,0-7.43-2.91-10.06-10.12-10.06Zm3.5,3.23h1.67c4,0,5.6,2.1,5.6,7,0,4.74-1.67,6.89-5.6,6.89H144.6Zm32.5-3.23v38.37h12.32V173H180.6v-15H189v-3.12H180.6V141.11h8.56v-3.23Z" transform="translate(-1 -1.06)"></path></svg>